<svg width="65" height="46" viewBox="0 0 65 46" fill="none" xmlns="http://www.w3.org/2000/svg">
<path id="Vector" d="M62.7147 13.4637H54.114L42.5822 25.1937V0H35.6865V45.3433H42.5822V30.2202L55.6936 45.3447H64.7189L48.8231 27.5189L62.7147 13.4637ZM16.506 39.527C11.4407 39.527 7.42888 35.8321 7.42888 29.3813C7.42888 22.9299 11.4407 19.2302 16.506 19.2302C20.4673 19.2302 23.476 21.017 25.5817 24.6608L30.72 21.1404C27.7133 15.9926 22.6978 12.8558 16.4808 12.8558C7.65444 12.8558 0.232613 19.7413 0.232613 29.382C0.232613 39.0193 7.62991 45.9075 16.4794 45.9075C23.0508 45.9075 28.0139 42.7197 30.7724 37.4403L25.9082 33.9219C23.2777 37.9985 20.6438 39.527 16.506 39.527Z" fill="#122048"/>
</svg>
